<svg width="464" height="738" viewBox="0 0 464 738" fill="none" xmlns="http://www.w3.org/2000/svg">
<path d="M417.221 0.561573L5.00554 48.0864L0.503193 695.425L414.72 737.446L414.789 716.936L417.094 38.0812L417.221 0.561573Z" fill="black"/>
<path d="M423.724 41.8227L417.094 38.0812L414.789 716.936L444.235 700.927L447.237 55.0901L423.724 41.8227Z" fill="white"/>
<path d="M417.094 38.0812L417.221 0.561573L5.00554 48.0864L0.503193 695.425L414.72 737.446L414.789 716.936M417.094 38.0812L447.237 55.0901M417.094 38.0812L414.789 716.936M417.094 38.0812L423.724 41.8227M447.237 55.0901L444.235 700.927L414.789 716.936M447.237 55.0901L423.724 41.8227M426.226 711.433L459.743 714.434L463.245 39.582L423.724 41.8227" stroke="black"/>
<path d="M463.245 40.0822L424.225 42.0833L447.237 55.0901L444.235 701.428L426.226 710.933L459.743 714.434L463.245 40.0822Z" fill="black" stroke="black"/>
</svg>
